# xmcd
#
# Track frame offsets:
#	150
#	28055
#	44005
#	63170
#	72423
#	101550
#	128099
#	145726
#
# Disc length: 2652 seconds
#
# Revision: 2
# Processed by: cddbd v1.5.2PL0 Copyright (c) Steve Scherf et al.
# Submitted via: audiograbber 1.83.01
#
DISCID=720a5a08
DTITLE=Lightning Swords of Death - The Extra Dimensional Wound
DYEAR=2010
DGENRE=Metal
TTITLE0=The Extra Dimensional Wound
TTITLE1=Nihilistic Stench
TTITLE2=Invoke the Desolate One
TTITLE3=Zwartgallig
TTITLE4=Damnation Pentastrike
TTITLE5=Venter of the Black Beast
TTITLE6=Vorticating into Scars
TTITLE7=Paths to Chaos
EXTD=
EXTT0=
EXTT1=
EXTT2=
EXTT3=
EXTT4=
EXTT5=
EXTT6=
EXTT7=
PLAYORDER=
